<svg version="1.1" xmlns="http://www.w3.org/2000/svg" xmlns:xlink="http://www.w3.org/1999/xlink" width="122.88px" height="117.55px" viewBox="0,0,256,244.8875"><g fill="#ffffff" fill-rule="evenodd" stroke="none" stroke-width="1" stroke-linecap="butt" stroke-linejoin="miter" stroke-miterlimit="10" stroke-dasharray="" stroke-dashoffset="0" font-family="none" font-weight="none" font-size="none" text-anchor="none" style="mix-blend-mode: normal"><g transform="translate(0.01042,-0.00327) scale(2.08333,2.08333)"><g><path d="M78.81,82.78c-4.35,4.77 -9.42,9.05 -15.12,12.51c-0.7,0.51 -1.65,0.58 -2.43,0.08c-8.41,-5.35 -15.48,-11.78 -21.03,-18.76c-7.66,-9.61 -12.49,-20.27 -14.14,-30.53c-1.68,-10.41 -0.11,-20.42 5.07,-28.56c2.04,-3.22 4.65,-6.15 7.83,-8.68c7.31,-5.83 15.66,-8.9 23.97,-8.84c8.01,0.06 15.91,3.05 22.74,9.28c2.4,2.18 4.42,4.68 6.07,7.39c5.57,9.17 6.77,20.87 4.32,32.73c-2.41,11.71 -8.41,23.62 -17.28,33.35v0.03v0zM25.32,74.54c1.98,0 3.59,1.61 3.59,3.59c0,1.98 -1.61,3.59 -3.59,3.59h-6.74l-8.88,28.67h103.22l-9.64,-28.67h-5.57c-1.98,0 -3.59,-1.61 -3.59,-3.59c0,-1.98 1.61,-3.59 3.59,-3.59h10.7l14.46,43.01h-122.87l13.32,-43.01h12zM61.38,18.51c9.88,0 17.88,8.01 17.88,17.87c0,9.88 -8.01,17.88 -17.88,17.88c-9.88,0 -17.87,-8 -17.87,-17.88c-0.02,-9.87 7.99,-17.87 17.87,-17.87v0z"></path></g></g></g></svg>